<svg width="48" height="48" xmlns="http://www.w3.org/2000/svg" viewBox="0 0 60 60">
  <path d="M 10 50 20 50 15 40 10 50" fill='var( --error )' stroke='none' />
  <path d="M 20 50 30 50 25 40 20 50" fill='var( --error )' stroke='none' />
  <path d="M 30 50 40 50 35 40 30 50" fill='var( --error )' stroke='none' />
  <path d="M 40 50 50 50 45 40 40 50" fill='var( --error )' stroke='none' />
  <path d="M 15 40 25 40 20 30 15 40" fill='var( --error )' stroke='none' />
  <path d="M 35 40 45 40 40 30 35 40" fill='var( --error )' stroke='none' />
  <path d="M 20 30 30 30 25 20 20 30" fill='var( --error )' stroke='none' />
  <path d="M 30 30 40 30 35 20 30 30" fill='var( --error )' stroke='none' />
  <path d="M 25 20 35 20 30 10 25 20" fill='var( --error )' stroke='none' />
  <path d="M 29 32 31 32 31 40 29 40 29 32" fill='var( --error )' stroke='none' />
  <path d="M 29 42 31 42 31 44 29 44 29 31" fill='var( --error )' stroke='none' />
</svg>
